<mxfile host="app.diagrams.net" modified="2022-02-19T07:43:03.497Z" agent="5.0 (Macintosh; Intel Mac OS X 10_15_7) AppleWebKit/537.36 (KHTML, like Gecko) Chrome/98.0.4758.80 Safari/537.36" etag="dADbExH5BW3Th_CflOFs" version="14.7.7" type="github">
  <diagram id="U8Gq-dn_gDHIcMUQXtdp" name="第 1 页">
    <mxGraphModel dx="946" dy="564" grid="1" gridSize="10" guides="1" tooltips="1" connect="1" arrows="1" fold="1" page="1" pageScale="1" pageWidth="1169" pageHeight="827" math="0" shadow="0">
      <root>
        <mxCell id="0" />
        <mxCell id="1" parent="0" />
        <mxCell id="-H0oDsWEmCGjMGa4AHSn-1" value="接口 I" style="swimlane;glass=0;startSize=40;fontSize=15;fillColor=#f5f5f5;strokeColor=#666666;fontColor=#333333;" vertex="1" parent="1">
          <mxGeometry x="110" y="160" width="170" height="120" as="geometry" />
        </mxCell>
        <mxCell id="-H0oDsWEmCGjMGa4AHSn-2" value="&lt;font style=&quot;font-size: 15px&quot;&gt;捕食&lt;/font&gt;" style="rounded=1;whiteSpace=wrap;html=1;glass=0;fillColor=#ffe6cc;strokeColor=#d79b00;" vertex="1" parent="-H0oDsWEmCGjMGa4AHSn-1">
          <mxGeometry x="10" y="60" width="150" height="40" as="geometry" />
        </mxCell>
        <mxCell id="-H0oDsWEmCGjMGa4AHSn-7" value="&lt;font style=&quot;font-size: 20px&quot;&gt;犬科&lt;/font&gt;" style="rounded=0;whiteSpace=wrap;html=1;glass=0;fillColor=#dae8fc;strokeColor=#6c8ebf;" vertex="1" parent="1">
          <mxGeometry x="400" y="300" width="120" height="60" as="geometry" />
        </mxCell>
        <mxCell id="-H0oDsWEmCGjMGa4AHSn-8" value="&lt;font&gt;&lt;font style=&quot;font-size: 20px&quot;&gt;鸟类&lt;/font&gt;&lt;br&gt;&lt;/font&gt;" style="rounded=0;whiteSpace=wrap;html=1;glass=0;fillColor=#d5e8d4;strokeColor=#82b366;" vertex="1" parent="1">
          <mxGeometry x="400" y="400" width="120" height="60" as="geometry" />
        </mxCell>
        <mxCell id="-H0oDsWEmCGjMGa4AHSn-9" value="宠物狗类" style="swimlane;glass=0;startSize=40;fillColor=#dae8fc;strokeColor=#6c8ebf;fontSize=15;" vertex="1" parent="1">
          <mxGeometry x="660" y="171" width="170" height="220" as="geometry" />
        </mxCell>
        <mxCell id="-H0oDsWEmCGjMGa4AHSn-10" value="&lt;span style=&quot;font-size: 15px&quot;&gt;捕食&lt;/span&gt;" style="rounded=1;whiteSpace=wrap;html=1;glass=0;fillColor=#ffe6cc;strokeColor=#d79b00;" vertex="1" parent="-H0oDsWEmCGjMGa4AHSn-9">
          <mxGeometry x="10" y="60" width="150" height="40" as="geometry" />
        </mxCell>
        <mxCell id="-H0oDsWEmCGjMGa4AHSn-13" value="&lt;span style=&quot;font-size: 15px&quot;&gt;奔跑&lt;/span&gt;" style="rounded=1;whiteSpace=wrap;html=1;glass=0;fillColor=#dae8fc;strokeColor=#6c8ebf;" vertex="1" parent="-H0oDsWEmCGjMGa4AHSn-9">
          <mxGeometry x="10" y="160" width="150" height="40" as="geometry" />
        </mxCell>
        <mxCell id="-H0oDsWEmCGjMGa4AHSn-14" value="&lt;span style=&quot;font-size: 15px&quot;&gt;行走&lt;/span&gt;" style="rounded=1;whiteSpace=wrap;html=1;glass=0;fillColor=#dae8fc;strokeColor=#6c8ebf;" vertex="1" parent="-H0oDsWEmCGjMGa4AHSn-9">
          <mxGeometry x="10" y="110" width="150" height="40" as="geometry" />
        </mxCell>
        <mxCell id="-H0oDsWEmCGjMGa4AHSn-16" value="鸽子类" style="swimlane;glass=0;startSize=40;fillColor=#d5e8d4;strokeColor=#82b366;fontSize=15;" vertex="1" parent="1">
          <mxGeometry x="660" y="414" width="170" height="220" as="geometry" />
        </mxCell>
        <mxCell id="-H0oDsWEmCGjMGa4AHSn-17" value="&lt;span style=&quot;font-size: 15px&quot;&gt;捕食&lt;/span&gt;" style="rounded=1;whiteSpace=wrap;html=1;glass=0;fillColor=#ffe6cc;strokeColor=#d79b00;" vertex="1" parent="-H0oDsWEmCGjMGa4AHSn-16">
          <mxGeometry x="10" y="60" width="150" height="40" as="geometry" />
        </mxCell>
        <mxCell id="-H0oDsWEmCGjMGa4AHSn-18" value="&lt;span style=&quot;font-size: 15px&quot;&gt;飞翔&lt;/span&gt;" style="rounded=1;whiteSpace=wrap;html=1;glass=0;fillColor=#d5e8d4;strokeColor=#82b366;" vertex="1" parent="-H0oDsWEmCGjMGa4AHSn-16">
          <mxGeometry x="10" y="160" width="150" height="40" as="geometry" />
        </mxCell>
        <mxCell id="-H0oDsWEmCGjMGa4AHSn-19" value="&lt;span style=&quot;font-size: 15px&quot;&gt;滑翔&lt;/span&gt;" style="rounded=1;whiteSpace=wrap;html=1;glass=0;fillColor=#d5e8d4;strokeColor=#82b366;" vertex="1" parent="-H0oDsWEmCGjMGa4AHSn-16">
          <mxGeometry x="10" y="110" width="150" height="40" as="geometry" />
        </mxCell>
        <mxCell id="-H0oDsWEmCGjMGa4AHSn-27" value="" style="endArrow=classic;html=1;dashed=1;dashPattern=1 1;fontSize=15;strokeColor=#67AB9F;strokeWidth=3;entryX=1;entryY=0.5;entryDx=0;entryDy=0;" edge="1" parent="1" target="-H0oDsWEmCGjMGa4AHSn-7">
          <mxGeometry width="50" height="50" relative="1" as="geometry">
            <mxPoint x="660" y="290" as="sourcePoint" />
            <mxPoint x="520" y="340" as="targetPoint" />
          </mxGeometry>
        </mxCell>
        <mxCell id="-H0oDsWEmCGjMGa4AHSn-28" value="" style="endArrow=classic;html=1;dashed=1;dashPattern=1 1;fontSize=15;strokeColor=#67AB9F;strokeWidth=3;exitX=0;exitY=0.25;exitDx=0;exitDy=0;entryX=1;entryY=0.5;entryDx=0;entryDy=0;" edge="1" parent="1" source="-H0oDsWEmCGjMGa4AHSn-16" target="-H0oDsWEmCGjMGa4AHSn-8">
          <mxGeometry width="50" height="50" relative="1" as="geometry">
            <mxPoint x="470" y="390" as="sourcePoint" />
            <mxPoint x="520" y="340" as="targetPoint" />
          </mxGeometry>
        </mxCell>
        <mxCell id="-H0oDsWEmCGjMGa4AHSn-29" value="接口 II" style="swimlane;glass=0;startSize=40;fontSize=15;fillColor=#fff2cc;strokeColor=#d6b656;" vertex="1" parent="1">
          <mxGeometry x="110" y="300" width="170" height="170" as="geometry" />
        </mxCell>
        <mxCell id="-H0oDsWEmCGjMGa4AHSn-33" value="&lt;span style=&quot;font-size: 15px&quot;&gt;奔跑&lt;/span&gt;" style="rounded=1;whiteSpace=wrap;html=1;glass=0;fillColor=#dae8fc;strokeColor=#6c8ebf;" vertex="1" parent="-H0oDsWEmCGjMGa4AHSn-29">
          <mxGeometry x="10" y="110" width="150" height="40" as="geometry" />
        </mxCell>
        <mxCell id="-H0oDsWEmCGjMGa4AHSn-34" value="&lt;span style=&quot;font-size: 15px&quot;&gt;行走&lt;/span&gt;" style="rounded=1;whiteSpace=wrap;html=1;glass=0;fillColor=#dae8fc;strokeColor=#6c8ebf;" vertex="1" parent="-H0oDsWEmCGjMGa4AHSn-29">
          <mxGeometry x="10" y="60" width="150" height="40" as="geometry" />
        </mxCell>
        <mxCell id="-H0oDsWEmCGjMGa4AHSn-35" value="接口 III" style="swimlane;glass=0;startSize=40;fontSize=15;fillColor=#f8cecc;strokeColor=#b85450;" vertex="1" parent="1">
          <mxGeometry x="110" y="490" width="170" height="170" as="geometry" />
        </mxCell>
        <mxCell id="-H0oDsWEmCGjMGa4AHSn-37" value="&lt;span style=&quot;font-size: 15px&quot;&gt;飞翔&lt;/span&gt;" style="rounded=1;whiteSpace=wrap;html=1;glass=0;fillColor=#d5e8d4;strokeColor=#82b366;" vertex="1" parent="-H0oDsWEmCGjMGa4AHSn-35">
          <mxGeometry x="10" y="110" width="150" height="40" as="geometry" />
        </mxCell>
        <mxCell id="-H0oDsWEmCGjMGa4AHSn-38" value="&lt;span style=&quot;font-size: 15px&quot;&gt;滑翔&lt;/span&gt;" style="rounded=1;whiteSpace=wrap;html=1;glass=0;fillColor=#d5e8d4;strokeColor=#82b366;" vertex="1" parent="-H0oDsWEmCGjMGa4AHSn-35">
          <mxGeometry x="10" y="60" width="150" height="40" as="geometry" />
        </mxCell>
        <mxCell id="-H0oDsWEmCGjMGa4AHSn-42" value="" style="endArrow=classic;html=1;dashed=1;dashPattern=1 1;fontSize=15;strokeColor=#67AB9F;strokeWidth=3;exitX=0;exitY=0.5;exitDx=0;exitDy=0;" edge="1" parent="1" source="-H0oDsWEmCGjMGa4AHSn-7">
          <mxGeometry width="50" height="50" relative="1" as="geometry">
            <mxPoint x="478" y="385" as="sourcePoint" />
            <mxPoint x="280" y="230" as="targetPoint" />
          </mxGeometry>
        </mxCell>
        <mxCell id="-H0oDsWEmCGjMGa4AHSn-43" value="" style="endArrow=classic;html=1;dashed=1;dashPattern=1 1;fontSize=15;strokeColor=#67AB9F;strokeWidth=3;" edge="1" parent="1">
          <mxGeometry width="50" height="50" relative="1" as="geometry">
            <mxPoint x="390" y="330" as="sourcePoint" />
            <mxPoint x="280" y="380" as="targetPoint" />
          </mxGeometry>
        </mxCell>
        <mxCell id="-H0oDsWEmCGjMGa4AHSn-44" value="" style="endArrow=classic;html=1;dashed=1;dashPattern=1 1;fontSize=15;strokeColor=#67AB9F;strokeWidth=3;exitX=0;exitY=0.5;exitDx=0;exitDy=0;" edge="1" parent="1" source="-H0oDsWEmCGjMGa4AHSn-8">
          <mxGeometry width="50" height="50" relative="1" as="geometry">
            <mxPoint x="400" y="340" as="sourcePoint" />
            <mxPoint x="280" y="230" as="targetPoint" />
          </mxGeometry>
        </mxCell>
        <mxCell id="-H0oDsWEmCGjMGa4AHSn-45" value="" style="endArrow=classic;html=1;dashed=1;dashPattern=1 1;fontSize=15;strokeColor=#67AB9F;strokeWidth=3;exitX=0;exitY=0.5;exitDx=0;exitDy=0;" edge="1" parent="1" source="-H0oDsWEmCGjMGa4AHSn-8">
          <mxGeometry width="50" height="50" relative="1" as="geometry">
            <mxPoint x="400" y="340" as="sourcePoint" />
            <mxPoint x="280" y="580" as="targetPoint" />
          </mxGeometry>
        </mxCell>
      </root>
    </mxGraphModel>
  </diagram>
</mxfile>
